<svg width="600" height="600" viewBox="0 0 600 600" fill="none" xmlns="http://www.w3.org/2000/svg">
<path d="M71.9091 305.545V298.273L130.455 268.455V280.091L85.5455 301.727L85.9091 301V302.818L85.5455 302.091L130.455 323.727V335.364L71.9091 305.545ZM154.648 347V253.909H187.193C193.678 253.909 199.027 255.03 203.239 257.273C207.451 259.485 210.587 262.47 212.648 266.227C214.708 269.955 215.739 274.091 215.739 278.636C215.739 282.636 215.027 285.939 213.602 288.545C212.208 291.152 210.36 293.212 208.057 294.727C205.784 296.242 203.314 297.364 200.648 298.091V299C203.496 299.182 206.36 300.182 209.239 302C212.117 303.818 214.527 306.424 216.466 309.818C218.405 313.212 219.375 317.364 219.375 322.273C219.375 326.939 218.314 331.136 216.193 334.864C214.072 338.591 210.723 341.545 206.148 343.727C201.572 345.909 195.617 347 188.284 347H154.648ZM165.92 337H188.284C195.648 337 200.875 335.576 203.966 332.727C207.087 329.848 208.648 326.364 208.648 322.273C208.648 319.121 207.845 316.212 206.239 313.545C204.633 310.848 202.345 308.697 199.375 307.091C196.405 305.455 192.89 304.636 188.83 304.636H165.92V337ZM165.92 294.818H186.83C190.223 294.818 193.284 294.152 196.011 292.818C198.769 291.485 200.951 289.606 202.557 287.182C204.193 284.758 205.011 281.909 205.011 278.636C205.011 274.545 203.587 271.076 200.739 268.227C197.89 265.348 193.375 263.909 187.193 263.909H165.92V294.818ZM247.17 253.909V347H236.443V253.909H247.17ZM295.182 348.455C288.879 348.455 283.348 346.955 278.591 343.955C273.864 340.955 270.167 336.758 267.5 331.364C264.864 325.97 263.545 319.667 263.545 312.455C263.545 305.182 264.864 298.833 267.5 293.409C270.167 287.985 273.864 283.773 278.591 280.773C283.348 277.773 288.879 276.273 295.182 276.273C301.485 276.273 307 277.773 311.727 280.773C316.485 283.773 320.182 287.985 322.818 293.409C325.485 298.833 326.818 305.182 326.818 312.455C326.818 319.667 325.485 325.97 322.818 331.364C320.182 336.758 316.485 340.955 311.727 343.955C307 346.955 301.485 348.455 295.182 348.455ZM295.182 338.818C299.97 338.818 303.909 337.591 307 335.136C310.091 332.682 312.379 329.455 313.864 325.455C315.348 321.455 316.091 317.121 316.091 312.455C316.091 307.788 315.348 303.439 313.864 299.409C312.379 295.379 310.091 292.121 307 289.636C303.909 287.152 299.97 285.909 295.182 285.909C290.394 285.909 286.455 287.152 283.364 289.636C280.273 292.121 277.985 295.379 276.5 299.409C275.015 303.439 274.273 307.788 274.273 312.455C274.273 317.121 275.015 321.455 276.5 325.455C277.985 329.455 280.273 332.682 283.364 335.136C286.455 337.591 290.394 338.818 295.182 338.818ZM371.375 374.636C366.193 374.636 361.739 373.97 358.011 372.636C354.284 371.333 351.178 369.606 348.693 367.455C346.239 365.333 344.284 363.061 342.83 360.636L351.375 354.636C352.345 355.909 353.572 357.364 355.057 359C356.542 360.667 358.572 362.106 361.148 363.318C363.754 364.561 367.163 365.182 371.375 365.182C377.011 365.182 381.663 363.818 385.33 361.091C388.996 358.364 390.83 354.091 390.83 348.273V334.091H389.92C389.133 335.364 388.011 336.939 386.557 338.818C385.133 340.667 383.072 342.318 380.375 343.773C377.708 345.197 374.102 345.909 369.557 345.909C363.92 345.909 358.86 344.576 354.375 341.909C349.92 339.242 346.39 335.364 343.784 330.273C341.208 325.182 339.92 319 339.92 311.727C339.92 304.576 341.178 298.348 343.693 293.045C346.208 287.712 349.708 283.591 354.193 280.682C358.678 277.742 363.86 276.273 369.739 276.273C374.284 276.273 377.89 277.03 380.557 278.545C383.254 280.03 385.314 281.727 386.739 283.636C388.193 285.515 389.314 287.061 390.102 288.273H391.193V277.182H401.557V349C401.557 355 400.193 359.879 397.466 363.636C394.769 367.424 391.133 370.197 386.557 371.955C382.011 373.742 376.951 374.636 371.375 374.636ZM371.011 336.273C375.314 336.273 378.951 335.288 381.92 333.318C384.89 331.348 387.148 328.515 388.693 324.818C390.239 321.121 391.011 316.697 391.011 311.545C391.011 306.515 390.254 302.076 388.739 298.227C387.223 294.379 384.981 291.364 382.011 289.182C379.042 287 375.375 285.909 371.011 285.909C366.466 285.909 362.678 287.061 359.648 289.364C356.648 291.667 354.39 294.758 352.875 298.636C351.39 302.515 350.648 306.818 350.648 311.545C350.648 316.394 351.405 320.682 352.92 324.409C354.466 328.106 356.739 331.015 359.739 333.136C362.769 335.227 366.527 336.273 371.011 336.273ZM454.102 249.545L424.102 361H414.284L444.284 249.545H454.102ZM528.455 314.273L469.909 344.091V332.455L514.818 310.818L514.455 311.545V309.727L514.818 310.455L469.909 288.818V277.182L528.455 307V314.273Z" fill="url(#paint0_linear_4_4)"/>
<defs>
<linearGradient id="paint0_linear_4_4" x1="59" y1="300.5" x2="542" y2="300.5" gradientUnits="userSpaceOnUse">
<stop stop-color="#51A2FF"/>
<stop offset="1" stop-color="#009689"/>
</linearGradient>
</defs>
</svg>
